<?xml version="1.0" standalone="yes"?>

<svg version="1.1" viewBox="0.0 0.0 100.0 75.0" fill="none" stroke="none" stroke-linecap="square" stroke-miterlimit="10" xmlns="http://www.w3.org/2000/svg" xmlns:xlink="http://www.w3.org/1999/xlink"><clipPath id="p.0"><path d="m0 0l100.0 0l0 75.0l-100.0 0l0 -75.0z" clip-rule="nonzero"></path></clipPath><g clip-path="url(#p.0)"><path fill="#000000" fill-opacity="0.0" d="m0 0l100.0 0l0 75.0l-100.0 0z" fill-rule="nonzero"></path><path fill="#000000" fill-opacity="0.0" d="m3.9944916 37.589233l0 0c0 -18.316717 14.785179 -33.16535 33.02362 -33.16535l0 0c8.758411 0 17.158096 3.494197 23.351227 9.713907c6.1931305 6.2197104 9.672394 14.655448 9.672394 23.451447l0 0c0 18.31672 -14.785175 33.16536 -33.02362 33.16536l0 0c-18.238441 0 -33.02362 -14.84864 -33.02362 -33.16536z" fill-rule="nonzero"></path><path stroke="#000000" stroke-width="2.0" stroke-linejoin="round" stroke-linecap="butt" d="m3.9944916 37.589233l0 0c0 -18.316717 14.785179 -33.16535 33.02362 -33.16535l0 0c8.758411 0 17.158096 3.494197 23.351227 9.713907c6.1931305 6.2197104 9.672394 14.655448 9.672394 23.451447l0 0c0 18.31672 -14.785175 33.16536 -33.02362 33.16536l0 0c-18.238441 0 -33.02362 -14.84864 -33.02362 -33.16536z" fill-rule="nonzero"></path><path fill="#000000" fill-opacity="0.0" d="m30.988394 37.589233l0 0c0 -18.316717 14.785181 -33.16535 33.02362 -33.16535l0 0c8.758408 0 17.158096 3.494197 23.351227 9.713907c6.1931305 6.2197104 9.672394 14.655448 9.672394 23.451447l0 0c0 18.31672 -14.785179 33.16536 -33.02362 33.16536l0 0c-18.238441 0 -33.02362 -14.84864 -33.02362 -33.16536z" fill-rule="nonzero"></path><path stroke="#000000" stroke-width="2.0" stroke-linejoin="round" stroke-linecap="butt" d="m30.988394 37.589233l0 0c0 -18.316717 14.785181 -33.16535 33.02362 -33.16535l0 0c8.758408 0 17.158096 3.494197 23.351227 9.713907c6.1931305 6.2197104 9.672394 14.655448 9.672394 23.451447l0 0c0 18.31672 -14.785179 33.16536 -33.02362 33.16536l0 0c-18.238441 0 -33.02362 -14.84864 -33.02362 -33.16536z" fill-rule="nonzero"></path></g></svg>

